ffmpeg started on 2025-06-27 at 16:32:38
Report written to "D:\Convert\FFMetrics\reports\ssim_report-6.txt"
Log level: 32
Command line:
ffmpeg -hide_banner -nostdin -i "G:\\\xc0\xed\xe8\xec\xe5\\\xce\xed\xe3\xee\xe8\xed\xe3\xe8\\!_37_\xc7\xe8\xec\xe0_2025\\JamClub\\[OVA] \xd1\xea\xe5\xe9\xf2 - \xc1\xe5\xf1\xea\xee\xed\xe5\xf7\xed\xee\xf1\xf2\xfc\\[JamClub] SK8_the_Infinity_EXTRA_PART_HEVC.mkv" -i "G:\\\xc0\xed\xe8\xec\xe5\\\xce\xed\xe3\xee\xe8\xed\xe3\xe8\\!_37_\xc7\xe8\xec\xe0_2025\\JamClub\\[OVA] \xd1\xea\xe5\xe9\xf2 - \xc1\xe5\xf1\xea\xee\xed\xe5\xf7\xed\xee\xf1\xf2\xfc\\[JamClub] SK8_the_Infinity_EXTRA_PART.mp4" -lavfi "[0:v]settb=AVTB,setpts=PTS-STARTPTS,format=pix_fmts=yuv420p10,fps=24000/1001,scale=1920:1080:flags=bicubic[main];[1:v]settb=AVTB,setpts=PTS-STARTPTS,format=pix_fmts=yuv420p,fps=24000/1001,scale=1920:1080:flags=bicubic[ref];[main][ref]ssim=eof_action=endall:stats_file='D\\:/Convert/FFMetrics/logs/ssim_logfile-6.txt'" -f null -
Input #0, matroska,webm, from 'G:\Аниме\Онгоинги\!_37_Зима_2025\JamClub\[OVA] Скейт - Бесконечность\[JamClub] SK8_the_Infinity_EXTRA_PART_HEVC.mkv':
  Metadata:
    COMPATIBLE_BRANDS: isomiso2avc1mp41
    MAJOR_BRAND     : isom
    MINOR_VERSION   : 512
    ENCODER         : Lavf61.7.100
  Duration: 00:25:56.82, start: -0.021000, bitrate: 1230 kb/s
  Stream #0:0: Video: hevc (Main 10), yuv420p10le(tv, bt709, progressive), 1920x1080 [SAR 1:1 DAR 16:9], 23.98 fps, 23.98 tbr, 1k tbn (default)
      Metadata:
        HANDLER_NAME    : VideoHandler
        VENDOR_ID       : [0][0][0][0]
        ENCODER         : Lavc61.19.100 libx265
        BPS             : 1032869
        DURATION        : 00:25:55.678708333
        NUMBER_OF_FRAMES: 37299
        NUMBER_OF_BYTES : 200851503
        _STATISTICS_WRITING_APP: mkvpropedit v66.0.0 ('Josie') 64-bit
        _STATISTICS_WRITING_DATE_UTC: 2025-06-27 13:30:37
        _STATISTICS_TAGS: BPS DURATION NUMBER_OF_FRAMES NUMBER_OF_BYTES
  Stream #0:1(eng): Audio: aac (LC), 48000 Hz, stereo, fltp (default)
      Metadata:
        HANDLER_NAME    : SoundHandler
        VENDOR_ID       : [0][0][0][0]
        ENCODER         : Lavc61.19.100 aac
        BPS             : 194381
        DURATION        : 00:25:56.803000000
        NUMBER_OF_FRAMES: 72976
        NUMBER_OF_BYTES : 37826696
        _STATISTICS_WRITING_APP: mkvpropedit v66.0.0 ('Josie') 64-bit
        _STATISTICS_WRITING_DATE_UTC: 2025-06-27 13:30:37
        _STATISTICS_TAGS: BPS DURATION NUMBER_OF_FRAMES NUMBER_OF_BYTES
Input #1, mov,mp4,m4a,3gp,3g2,mj2, from 'G:\Аниме\Онгоинги\!_37_Зима_2025\JamClub\[OVA] Скейт - Бесконечность\[JamClub] SK8_the_Infinity_EXTRA_PART.mp4':
  Metadata:
    major_brand     : isom
    minor_version   : 512
    compatible_brands: isomiso2avc1mp41
    encoder         : Lavf60.16.100
  Duration: 00:25:56.80, start: 0.000000, bitrate: 4186 kb/s
  Stream #1:0[0x1](und): Video: h264 (High) (avc1 / 0x31637661), yuv420p(tv, bt709, progressive), 1920x1080 [SAR 1:1 DAR 16:9], 3991 kb/s, 23.98 fps, 23.98 tbr, 90k tbn (default)
      Metadata:
        handler_name    : VideoHandler
        vendor_id       : [0][0][0][0]
  Stream #1:1[0x2](eng): Audio: aac (LC) (mp4a / 0x6134706D), 48000 Hz, stereo, fltp, 191 kb/s (default)
      Metadata:
        handler_name    : SoundHandler
        vendor_id       : [0][0][0][0]
Stream mapping:
  Stream #0:0 (hevc) -> settb:default
  Stream #1:0 (h264) -> settb:default
  ssim:default -> Stream #0:0 (wrapped_avframe)
  Stream #0:1 -> #0:1 (aac (native) -> pcm_s16le (native))
Output #0, null, to 'pipe:':
  Metadata:
    COMPATIBLE_BRANDS: isomiso2avc1mp41
    MAJOR_BRAND     : isom
    MINOR_VERSION   : 512
    encoder         : Lavf61.7.100
  Stream #0:0: Video: wrapped_avframe, yuv420p10le(tv, bt709, progressive), 1920x1080 [SAR 1:1 DAR 16:9], q=2-31, 200 kb/s, 23.98 fps, 23.98 tbn
      Metadata:
        encoder         : Lavc61.19.100 wrapped_avframe
  Stream #0:1(eng): Audio: pcm_s16le, 48000 Hz, stereo, s16, 1536 kb/s (default)
      Metadata:
        HANDLER_NAME    : SoundHandler
        VENDOR_ID       : [0][0][0][0]
        _STATISTICS_TAGS: BPS DURATION NUMBER_OF_FRAMES NUMBER_OF_BYTES
        BPS             : 194381
        DURATION        : 00:25:56.803000000
        NUMBER_OF_FRAMES: 72976
        NUMBER_OF_BYTES : 37826696
        _STATISTICS_WRITING_APP: mkvpropedit v66.0.0 ('Josie') 64-bit
        _STATISTICS_WRITING_DATE_UTC: 2025-06-27 13:30:37
        encoder         : Lavc61.19.100 pcm_s16le
frame=  112 fps=0.0 q=-0.0 size=N/A time=00:00:04.67 bitrate=N/A speed=9.04x    frame=  264 fps=257 q=-0.0 size=N/A time=00:00:11.01 bitrate=N/A speed=10.7x    frame=  435 fps=283 q=-0.0 size=N/A time=00:00:18.14 bitrate=N/A speed=11.8x    frame=  665 fps=324 q=-0.0 size=N/A time=00:00:27.73 bitrate=N/A speed=13.5x    frame=  887 fps=344 q=-0.0 size=N/A time=00:00:36.99 bitrate=N/A speed=14.3x    frame= 1127 fps=365 q=-0.0 size=N/A time=00:00:47.00 bitrate=N/A speed=15.2x    frame= 1324 fps=368 q=-0.0 size=N/A time=00:00:55.22 bitrate=N/A speed=15.3x    frame= 1526 fps=371 q=-0.0 size=N/A time=00:01:03.64 bitrate=N/A speed=15.5x    frame= 1745 fps=376 q=-0.0 size=N/A time=00:01:12.78 bitrate=N/A speed=15.7x    frame= 1986 fps=386 q=-0.0 size=N/A time=00:01:22.83 bitrate=N/A speed=16.1x    frame= 2225 fps=393 q=-0.0 size=N/A time=00:01:32.80 bitrate=N/A speed=16.4x    frame= 2467 fps=400 q=-0.0 size=N/A time=00:01:42.89 bitrate=N/A speed=16.7x    frame= 2708 fps=404 q=-0.0 size=N/A time=00:01:52.94 bitrate=N/A speed=16.9x    frame= 2924 fps=405 q=-0.0 size=N/A time=00:02:01.95 bitrate=N/A speed=16.9x    frame= 3154 fps=408 q=-0.0 size=N/A time=00:02:11.54 bitrate=N/A speed=  17x    frame= 3373 fps=410 q=-0.0 size=N/A time=00:02:20.68 bitrate=N/A speed=17.1x    frame= 3604 fps=411 q=-0.0 size=N/A time=00:02:30.31 bitrate=N/A speed=17.2x    frame= 3837 fps=414 q=-0.0 size=N/A time=00:02:40.03 bitrate=N/A speed=17.3x    frame= 4094 fps=418 q=-0.0 size=N/A time=00:02:50.75 bitrate=N/A speed=17.4x    frame= 4330 fps=420 q=-0.0 size=N/A time=00:03:00.59 bitrate=N/A speed=17.5x    frame= 4561 fps=421 q=-0.0 size=N/A time=00:03:10.23 bitrate=N/A speed=17.6x    frame= 4795 fps=423 q=-0.0 size=N/A time=00:03:19.99 bitrate=N/A speed=17.6x    frame= 5038 fps=425 q=-0.0 size=N/A time=00:03:30.12 bitrate=N/A speed=17.7x    frame= 5275 fps=426 q=-0.0 size=N/A time=00:03:40.01 bitrate=N/A speed=17.8x    frame= 5506 fps=427 q=-0.0 size=N/A time=00:03:49.64 bitrate=N/A speed=17.8x    frame= 5743 fps=429 q=-0.0 size=N/A time=00:03:59.53 bitrate=N/A speed=17.9x    frame= 5982 fps=430 q=-0.0 size=N/A time=00:04:09.49 bitrate=N/A speed=17.9x    frame= 6213 fps=430 q=-0.0 size=N/A time=00:04:19.13 bitrate=N/A speed=  18x    frame= 6404 fps=428 q=-0.0 size=N/A time=00:04:27.10 bitrate=N/A speed=17.9x    frame= 6631 fps=429 q=-0.0 size=N/A time=00:04:36.56 bitrate=N/A speed=17.9x    frame= 6855 fps=429 q=-0.0 size=N/A time=00:04:45.91 bitrate=N/A speed=17.9x    frame= 7087 fps=430 q=-0.0 size=N/A time=00:04:55.58 bitrate=N/A speed=17.9x    frame= 7296 fps=429 q=-0.0 size=N/A time=00:05:04.30 bitrate=N/A speed=17.9x    frame= 7533 fps=430 q=-0.0 size=N/A time=00:05:14.18 bitrate=N/A speed=17.9x    frame= 7764 fps=430 q=-0.0 size=N/A time=00:05:23.82 bitrate=N/A speed=17.9x    frame= 7976 fps=430 q=-0.0 size=N/A time=00:05:32.66 bitrate=N/A speed=17.9x    frame= 8186 fps=429 q=-0.0 size=N/A time=00:05:41.42 bitrate=N/A speed=17.9x    frame= 8418 fps=430 q=-0.0 size=N/A time=00:05:51.10 bitrate=N/A speed=17.9x    frame= 8666 fps=431 q=-0.0 size=N/A time=00:06:01.44 bitrate=N/A speed=  18x    frame= 8869 fps=430 q=-0.0 size=N/A time=00:06:09.91 bitrate=N/A speed=17.9x    frame= 9058 fps=429 q=-0.0 size=N/A time=00:06:17.79 bitrate=N/A speed=17.9x    frame= 9268 fps=428 q=-0.0 size=N/A time=00:06:26.55 bitrate=N/A speed=17.9x    frame= 9478 fps=428 q=-0.0 size=N/A time=00:06:35.31 bitrate=N/A speed=17.8x    frame= 9684 fps=427 q=-0.0 size=N/A time=00:06:43.90 bitrate=N/A speed=17.8x    frame= 9925 fps=428 q=-0.0 size=N/A time=00:06:53.95 bitrate=N/A speed=17.8x    frame=10113 fps=427 q=-0.0 size=N/A time=00:07:01.79 bitrate=N/A speed=17.8x    frame=10346 fps=427 q=-0.0 size=N/A time=00:07:11.51 bitrate=N/A speed=17.8x    frame=10566 fps=427 q=-0.0 size=N/A time=00:07:20.69 bitrate=N/A speed=17.8x    frame=10752 fps=426 q=-0.0 size=N/A time=00:07:28.44 bitrate=N/A speed=17.8x    frame=10960 fps=425 q=-0.0 size=N/A time=00:07:37.12 bitrate=N/A speed=17.7x    frame=11186 fps=425 q=-0.0 size=N/A time=00:07:46.54 bitrate=N/A speed=17.7x    frame=11389 fps=425 q=-0.0 size=N/A time=00:07:55.01 bitrate=N/A speed=17.7x    frame=11625 fps=426 q=-0.0 size=N/A time=00:08:04.85 bitrate=N/A speed=17.7x    frame=11861 fps=426 q=-0.0 size=N/A time=00:08:14.70 bitrate=N/A speed=17.8x    frame=12089 fps=426 q=-0.0 size=N/A time=00:08:24.21 bitrate=N/A speed=17.8x    frame=12326 fps=427 q=-0.0 size=N/A time=00:08:34.09 bitrate=N/A speed=17.8x    frame=12557 fps=427 q=-0.0 size=N/A time=00:08:43.73 bitrate=N/A speed=17.8x    frame=12799 fps=428 q=-0.0 size=N/A time=00:08:53.82 bitrate=N/A speed=17.9x    frame=13058 fps=429 q=-0.0 size=N/A time=00:09:04.62 bitrate=N/A speed=17.9x    frame=13309 fps=430 q=-0.0 size=N/A time=00:09:15.09 bitrate=N/A speed=17.9x    frame=13540 fps=431 q=-0.0 size=N/A time=00:09:24.73 bitrate=N/A speed=  18x    frame=13782 fps=431 q=-0.0 size=N/A time=00:09:34.82 bitrate=N/A speed=  18x    frame=13977 fps=430 q=-0.0 size=N/A time=00:09:42.95 bitrate=N/A speed=17.9x    frame=14192 fps=430 q=-0.0 size=N/A time=00:09:51.92 bitrate=N/A speed=17.9x    frame=14418 fps=430 q=-0.0 size=N/A time=00:10:01.35 bitrate=N/A speed=17.9x    frame=14637 fps=430 q=-0.0 size=N/A time=00:10:10.48 bitrate=N/A speed=17.9x    frame=14858 fps=430 q=-0.0 size=N/A time=00:10:19.70 bitrate=N/A speed=17.9x    frame=15066 fps=430 q=-0.0 size=N/A time=00:10:28.37 bitrate=N/A speed=17.9x    frame=15327 fps=431 q=-0.0 size=N/A time=00:10:39.26 bitrate=N/A speed=  18x    frame=15577 fps=432 q=-0.0 size=N/A time=00:10:49.69 bitrate=N/A speed=  18x    frame=15812 fps=432 q=-0.0 size=N/A time=00:10:59.49 bitrate=N/A speed=  18x    frame=16000 fps=431 q=-0.0 size=N/A time=00:11:07.33 bitrate=N/A speed=  18x    frame=16153 fps=429 q=-0.0 size=N/A time=00:11:13.71 bitrate=N/A speed=17.9x    frame=16352 fps=429 q=-0.0 size=N/A time=00:11:22.01 bitrate=N/A speed=17.9x    frame=16587 fps=429 q=-0.0 size=N/A time=00:11:31.81 bitrate=N/A speed=17.9x    frame=16797 fps=429 q=-0.0 size=N/A time=00:11:40.57 bitrate=N/A speed=17.9x    frame=17020 fps=429 q=-0.0 size=N/A time=00:11:49.87 bitrate=N/A speed=17.9x    frame=17244 fps=429 q=-0.0 size=N/A time=00:11:59.21 bitrate=N/A speed=17.9x    frame=17489 fps=429 q=-0.0 size=N/A time=00:12:09.43 bitrate=N/A speed=17.9x    frame=17733 fps=430 q=-0.0 size=N/A time=00:12:19.61 bitrate=N/A speed=17.9x    frame=17963 fps=430 q=-0.0 size=N/A time=00:12:29.20 bitrate=N/A speed=17.9x    frame=18079 fps=428 q=-0.0 size=N/A time=00:12:34.04 bitrate=N/A speed=17.8x    frame=18205 fps=425 q=-0.0 size=N/A time=00:12:39.30 bitrate=N/A speed=17.7x    frame=18382 fps=424 q=-0.0 size=N/A time=00:12:46.68 bitrate=N/A speed=17.7x    frame=18516 fps=423 q=-0.0 size=N/A time=00:12:52.27 bitrate=N/A speed=17.6x    frame=18719 fps=422 q=-0.0 size=N/A time=00:13:00.73 bitrate=N/A speed=17.6x    frame=18960 fps=423 q=-0.0 size=N/A time=00:13:10.79 bitrate=N/A speed=17.6x    frame=19205 fps=423 q=-0.0 size=N/A time=00:13:21.00 bitrate=N/A speed=17.7x    frame=19435 fps=424 q=-0.0 size=N/A time=00:13:30.60 bitrate=N/A speed=17.7x    frame=19673 fps=424 q=-0.0 size=N/A time=00:13:40.52 bitrate=N/A speed=17.7x    frame=19876 fps=424 q=-0.0 size=N/A time=00:13:48.99 bitrate=N/A speed=17.7x    frame=20110 fps=424 q=-0.0 size=N/A time=00:13:58.75 bitrate=N/A speed=17.7x    frame=20368 fps=425 q=-0.0 size=N/A time=00:14:09.51 bitrate=N/A speed=17.7x    frame=20601 fps=425 q=-0.0 size=N/A time=00:14:19.23 bitrate=N/A speed=17.7x    frame=20828 fps=425 q=-0.0 size=N/A time=00:14:28.70 bitrate=N/A speed=17.7x    frame=21028 fps=425 q=-0.0 size=N/A time=00:14:37.04 bitrate=N/A speed=17.7x    frame=21221 fps=424 q=-0.0 size=N/A time=00:14:45.09 bitrate=N/A speed=17.7x    frame=21471 fps=425 q=-0.0 size=N/A time=00:14:55.51 bitrate=N/A speed=17.7x    frame=21718 fps=425 q=-0.0 size=N/A time=00:15:05.82 bitrate=N/A speed=17.7x    frame=21967 fps=426 q=-0.0 size=N/A time=00:15:16.20 bitrate=N/A speed=17.8x    frame=22205 fps=426 q=-0.0 size=N/A time=00:15:26.13 bitrate=N/A speed=17.8x    frame=22460 fps=427 q=-0.0 size=N/A time=00:15:36.76 bitrate=N/A speed=17.8x    frame=22744 fps=428 q=-0.0 size=N/A time=00:15:48.61 bitrate=N/A speed=17.9x    frame=22995 fps=429 q=-0.0 size=N/A time=00:15:59.08 bitrate=N/A speed=17.9x    frame=23221 fps=429 q=-0.0 size=N/A time=00:16:08.50 bitrate=N/A speed=17.9x    frame=23472 fps=429 q=-0.0 size=N/A time=00:16:18.97 bitrate=N/A speed=17.9x    frame=23735 fps=430 q=-0.0 size=N/A time=00:16:29.94 bitrate=N/A speed=17.9x    frame=24003 fps=431 q=-0.0 size=N/A time=00:16:41.12 bitrate=N/A speed=  18x    frame=24268 fps=432 q=-0.0 size=N/A time=00:16:52.17 bitrate=N/A speed=  18x    frame=24504 fps=432 q=-0.0 size=N/A time=00:17:02.02 bitrate=N/A speed=  18x    frame=24763 fps=433 q=-0.0 size=N/A time=00:17:12.82 bitrate=N/A speed=  18x    frame=25025 fps=433 q=-0.0 size=N/A time=00:17:23.75 bitrate=N/A speed=18.1x    frame=25280 fps=434 q=-0.0 size=N/A time=00:17:34.38 bitrate=N/A speed=18.1x    frame=25548 fps=435 q=-0.0 size=N/A time=00:17:45.56 bitrate=N/A speed=18.1x    frame=25796 fps=435 q=-0.0 size=N/A time=00:17:55.90 bitrate=N/A speed=18.1x    frame=26049 fps=435 q=-0.0 size=N/A time=00:18:06.46 bitrate=N/A speed=18.2x    frame=26279 fps=436 q=-0.0 size=N/A time=00:18:16.05 bitrate=N/A speed=18.2x    frame=26540 fps=436 q=-0.0 size=N/A time=00:18:26.93 bitrate=N/A speed=18.2x    frame=26804 fps=437 q=-0.0 size=N/A time=00:18:37.95 bitrate=N/A speed=18.2x    frame=27068 fps=437 q=-0.0 size=N/A time=00:18:48.96 bitrate=N/A speed=18.2x    frame=27320 fps=438 q=-0.0 size=N/A time=00:18:59.47 bitrate=N/A speed=18.3x    frame=27582 fps=438 q=-0.0 size=N/A time=00:19:10.39 bitrate=N/A speed=18.3x    frame=27835 fps=439 q=-0.0 size=N/A time=00:19:20.95 bitrate=N/A speed=18.3x    frame=28095 fps=439 q=-0.0 size=N/A time=00:19:31.79 bitrate=N/A speed=18.3x    frame=28348 fps=440 q=-0.0 size=N/A time=00:19:42.34 bitrate=N/A speed=18.3x    frame=28624 fps=440 q=-0.0 size=N/A time=00:19:53.85 bitrate=N/A speed=18.4x    frame=28885 fps=441 q=-0.0 size=N/A time=00:20:04.74 bitrate=N/A speed=18.4x    frame=29146 fps=441 q=-0.0 size=N/A time=00:20:15.63 bitrate=N/A speed=18.4x    frame=29426 fps=442 q=-0.0 size=N/A time=00:20:27.30 bitrate=N/A speed=18.4x    frame=29697 fps=443 q=-0.0 size=N/A time=00:20:38.61 bitrate=N/A speed=18.5x    frame=29951 fps=443 q=-0.0 size=N/A time=00:20:49.20 bitrate=N/A speed=18.5x    frame=30210 fps=444 q=-0.0 size=N/A time=00:21:00.00 bitrate=N/A speed=18.5x    frame=30445 fps=444 q=-0.0 size=N/A time=00:21:09.81 bitrate=N/A speed=18.5x    frame=30697 fps=444 q=-0.0 size=N/A time=00:21:20.32 bitrate=N/A speed=18.5x    frame=30956 fps=445 q=-0.0 size=N/A time=00:21:31.12 bitrate=N/A speed=18.5x    frame=31213 fps=445 q=-0.0 size=N/A time=00:21:41.84 bitrate=N/A speed=18.6x    frame=31470 fps=445 q=-0.0 size=N/A time=00:21:52.56 bitrate=N/A speed=18.6x    frame=31698 fps=445 q=-0.0 size=N/A time=00:22:02.07 bitrate=N/A speed=18.6x    frame=31965 fps=446 q=-0.0 size=N/A time=00:22:13.20 bitrate=N/A speed=18.6x    frame=32246 fps=446 q=-0.0 size=N/A time=00:22:24.92 bitrate=N/A speed=18.6x    frame=32517 fps=447 q=-0.0 size=N/A time=00:22:36.22 bitrate=N/A speed=18.6x    frame=32748 fps=447 q=-0.0 size=N/A time=00:22:45.86 bitrate=N/A speed=18.6x    frame=33009 fps=447 q=-0.0 size=N/A time=00:22:56.75 bitrate=N/A speed=18.7x    frame=33274 fps=448 q=-0.0 size=N/A time=00:23:07.80 bitrate=N/A speed=18.7x    frame=33537 fps=448 q=-0.0 size=N/A time=00:23:18.77 bitrate=N/A speed=18.7x    frame=33794 fps=449 q=-0.0 size=N/A time=00:23:29.49 bitrate=N/A speed=18.7x    frame=34036 fps=449 q=-0.0 size=N/A time=00:23:39.58 bitrate=N/A speed=18.7x    frame=34303 fps=449 q=-0.0 size=N/A time=00:23:50.72 bitrate=N/A speed=18.7x    frame=34561 fps=450 q=-0.0 size=N/A time=00:24:01.48 bitrate=N/A speed=18.8x    frame=34800 fps=450 q=-0.0 size=N/A time=00:24:11.45 bitrate=N/A speed=18.8x    frame=35033 fps=450 q=-0.0 size=N/A time=00:24:21.16 bitrate=N/A speed=18.8x    frame=35214 fps=449 q=-0.0 size=N/A time=00:24:28.71 bitrate=N/A speed=18.7x    frame=35398 fps=448 q=-0.0 size=N/A time=00:24:36.39 bitrate=N/A speed=18.7x    frame=35617 fps=448 q=-0.0 size=N/A time=00:24:45.52 bitrate=N/A speed=18.7x    frame=35809 fps=448 q=-0.0 size=N/A time=00:24:53.53 bitrate=N/A speed=18.7x    frame=36008 fps=447 q=-0.0 size=N/A time=00:25:01.83 bitrate=N/A speed=18.7x    frame=36213 fps=447 q=-0.0 size=N/A time=00:25:10.38 bitrate=N/A speed=18.6x    frame=36375 fps=446 q=-0.0 size=N/A time=00:25:17.14 bitrate=N/A speed=18.6x    frame=36519 fps=445 q=-0.0 size=N/A time=00:25:23.14 bitrate=N/A speed=18.6x    frame=36703 fps=445 q=-0.0 size=N/A time=00:25:30.82 bitrate=N/A speed=18.5x    frame=36905 fps=444 q=-0.0 size=N/A time=00:25:39.24 bitrate=N/A speed=18.5x    frame=37143 fps=444 q=-0.0 size=N/A time=00:25:49.17 bitrate=N/A speed=18.5x    [Parsed_ssim_10 @ 000002371dbc29c0] SSIM Y:0.994600 (22.676253) U:0.991826 (20.875834) V:0.991999 (20.968519) All:0.993704 (22.009608)
[out#0/null @ 00000237125af740] video:16027KiB audio:291904KiB subtitle:0KiB other streams:0KiB global headers:0KiB muxing overhead: unknown
frame=37299 fps=445 q=-0.0 Lsize=N/A time=00:25:55.67 bitrate=N/A speed=18.6x    
